<svg width="17" height="15" viewBox="0 0 17 15" fill="none" xmlns="http://www.w3.org/2000/svg">
<path d="M0.0368652 8.04175V3.54761C0.0368652 1.83081 0.974365 0.864014 2.72046 0.864014H10.2673C11.7791 0.864014 12.6873 1.60229 12.8923 2.90894V3.02612H8.84937C6.71069 3.02612 5.48022 4.29761 5.48022 6.39526V9.56519C5.48022 10.239 5.60913 10.825 5.84937 11.3113L4.48413 12.5242C4.12671 12.8347 3.92749 12.9871 3.64038 12.9871C3.23022 12.9871 3.00171 12.7 3.00171 12.2488V10.7195H2.72046C0.974365 10.7195 0.0368652 9.75854 0.0368652 8.04175ZM8.84937 12.1316C7.16187 12.1316 6.2771 11.2292 6.2771 9.56519V6.39526C6.2771 4.7312 7.16187 3.823 8.84937 3.823H14.2927C15.9802 3.823 16.865 4.7312 16.865 6.39526V9.56519C16.865 11.2234 15.9802 12.1316 14.2927 12.1316H14.1697V13.5378C14.1697 13.9832 13.9412 14.2703 13.5369 14.2703C13.2556 14.2703 13.0623 14.1121 12.7048 13.8074L10.7478 12.1316H8.84937Z" fill="#999999"/>
</svg>
