<svg width="12" height="13" viewBox="0 0 12 13" fill="none" xmlns="http://www.w3.org/2000/svg">
<path d="M5.97607 12.5729C2.7124 12.5729 -0.000488281 9.86005 -0.000488281 6.59637C-0.000488281 3.32684 2.70654 0.619812 5.97021 0.619812C9.23975 0.619812 11.9526 3.32684 11.9526 6.59637C11.9526 9.86005 9.24561 12.5729 5.97607 12.5729ZM2.91162 7.22919H5.97021C6.19873 7.22919 6.38037 7.05341 6.38037 6.81903V2.86981C6.38037 2.6413 6.19873 2.46552 5.97021 2.46552C5.7417 2.46552 5.56592 2.6413 5.56592 2.86981V6.41473H2.91162C2.67725 6.41473 2.50146 6.59052 2.50146 6.81903C2.50146 7.05341 2.67725 7.22919 2.91162 7.22919Z" fill="#999999"/>
</svg>
