<svg width="12" height="18" viewBox="0 0 12 18" fill="none" xmlns="http://www.w3.org/2000/svg">
<path d="M1.81445 17.351C1.29102 17.351 0.986328 17.0072 0.986328 16.3979V2.83537C0.986328 1.351 1.72852 0.593185 3.19727 0.593185H9.30664C10.7754 0.593185 11.5176 1.351 11.5176 2.83537V16.3979C11.5176 17.0072 11.2129 17.351 10.6895 17.351C10.3066 17.351 10.0801 17.1322 9.37695 16.4526L6.32227 13.4447C6.29102 13.4057 6.2207 13.4057 6.18164 13.4447L3.12695 16.4526C2.42383 17.1322 2.19727 17.351 1.81445 17.351ZM2.45508 15.2416L5.83789 11.9604C6.08789 11.7182 6.41602 11.7182 6.66602 11.9604L10.0488 15.2416C10.166 15.351 10.2832 15.3197 10.2832 15.1635V2.851C10.2832 2.17912 9.93164 1.82756 9.25195 1.82756H3.25977C2.57227 1.82756 2.2207 2.17912 2.2207 2.851V15.1635C2.2207 15.3197 2.3457 15.351 2.45508 15.2416Z" fill="#999999"/>
</svg>
