<svg width="121" height="39" viewBox="0 0 121 39" fill="none" xmlns="http://www.w3.org/2000/svg">
<path d="M17.1176 16.2525L18.2005 10.5521H22.8455L25.5137 23.4404L28.2461 10.5521H33.0197L27.9407 28.4479H23.2313L20.4828 15.4118L18.7141 23.8161L17.1176 16.2525Z" fill="black"/>
<path d="M40.4086 17.5625C41.2611 17.4533 41.8709 17.3162 42.2382 17.152C42.8966 16.8678 43.2261 16.4245 43.2261 15.8222C43.2261 15.0892 42.9733 14.5827 42.4683 14.3035C41.963 14.0244 41.2216 13.8849 40.2445 13.8849C39.1476 13.8849 38.3706 14.1588 37.9146 14.7057C37.5885 15.1111 37.3715 15.658 37.263 16.3476H32.8429C32.9393 14.7827 33.3699 13.4967 34.1341 12.4894C35.3503 10.9132 37.4378 10.1252 40.3976 10.1252C42.324 10.1252 44.0348 10.5141 45.5309 11.2909C47.0267 12.0683 47.7747 13.535 47.7747 15.6908V23.9001C47.7747 24.4692 47.785 25.1588 47.8068 25.9688C47.839 26.5817 47.9297 26.9976 48.08 27.2166C48.2298 27.4355 48.4548 27.6161 48.7549 27.7583V28.4479H43.7725C43.6329 28.0866 43.5364 27.7473 43.4832 27.4299C43.4293 27.1126 43.3868 26.7514 43.3546 26.3464C42.7184 27.0469 41.9854 27.6434 41.1556 28.1359C40.1642 28.716 39.0431 29.006 37.793 29.006C36.1978 29.006 34.8802 28.5436 33.8402 27.6188C32.8 26.6939 32.2803 25.3832 32.2803 23.6866C32.2803 21.4868 33.1169 19.8939 34.7898 18.9087C35.7075 18.3727 37.0567 17.9894 38.8381 17.7595L40.4086 17.5625ZM43.2097 19.746C42.9164 19.9325 42.62 20.0826 42.3216 20.1975C42.0226 20.3125 41.6128 20.4192 41.0913 20.5177L40.0487 20.7151C39.0712 20.8902 38.3693 21.1036 37.9431 21.3553C37.2215 21.7823 36.8611 22.4444 36.8611 23.3419C36.8611 24.1409 37.0812 24.7183 37.5222 25.074C37.9625 25.4297 38.4985 25.6076 39.1295 25.6076C40.1307 25.6076 41.0525 25.3121 41.896 24.721C42.7391 24.13 43.1768 23.0518 43.2097 21.4868L43.2097 19.746Z" fill="black"/>
<path d="M48.5281 13.8849V10.5521H50.9713V5.72516H55.5038V10.5521H58.3488V13.8849H55.5038V23.5061C55.5038 24.2394 55.5949 24.6964 55.777 24.877C55.9592 25.0576 56.5164 25.1479 57.4487 25.1479C57.5879 25.1479 57.7353 25.1452 57.8906 25.1396C58.0461 25.1342 58.1987 25.126 58.3488 25.115V28.612L56.1789 28.6942C54.0144 28.7708 52.5356 28.3877 51.7427 27.5449C51.2284 27.0086 50.9713 26.1822 50.9713 25.0658V13.8849H48.5281Z" fill="black"/>
<path d="M63.6053 22.7345C63.7023 23.5663 63.9123 24.1573 64.2348 24.5076C64.8053 25.1315 65.8608 25.4435 67.4005 25.4435C68.3045 25.4435 69.0232 25.3066 69.5563 25.033C70.0893 24.7594 70.356 24.3489 70.356 23.8016C70.356 23.2763 70.1409 22.8768 69.7116 22.6031C69.283 22.3295 67.6851 21.8589 64.9199 21.1913C62.9288 20.6877 61.5264 20.058 60.7121 19.3028C59.8977 18.5589 59.4905 17.4862 59.4905 16.0849C59.4905 14.4325 60.1268 13.0124 61.3993 11.8245C62.6716 10.6373 64.4625 10.0431 66.7713 10.0431C68.9615 10.0431 70.747 10.4895 72.1267 11.3812C73.5062 12.2736 74.2985 13.8142 74.5027 16.0028H69.9219C69.8576 15.4012 69.6909 14.9251 69.4223 14.5745C68.9173 13.94 68.0574 13.6222 66.8436 13.6222C65.844 13.6222 65.1322 13.7813 64.7079 14.0984C64.2837 14.4161 64.0713 14.7879 64.0713 15.2148C64.0713 15.7514 64.297 16.1399 64.7484 16.3804C65.1992 16.6325 66.7938 17.0649 69.5308 17.6774C71.3565 18.1156 72.7239 18.7774 73.6347 19.664C74.5348 20.5619 74.9848 21.6838 74.9848 23.0301C74.9848 24.8032 74.3379 26.2506 73.0441 27.3726C71.7503 28.4944 69.7505 29.0554 67.0448 29.0554C64.2857 29.0554 62.2484 28.4616 60.933 27.2741C59.6178 26.0865 58.9602 24.5732 58.9602 22.7345H63.6053Z" fill="black"/>
<path d="M91.234 26.2588C89.7554 28.1236 87.5105 29.0553 84.4995 29.0553C81.4884 29.0553 79.2436 28.1236 77.7648 26.2588C76.2862 24.394 75.5468 22.1489 75.5468 19.5244C75.5468 16.9441 76.2862 14.7074 77.7648 12.8156C79.2436 10.9235 81.4884 9.97742 84.4995 9.97742C87.5105 9.97742 89.7554 10.9235 91.234 12.8156C92.7128 14.7074 93.4521 16.9441 93.4521 19.5244C93.4521 22.1489 92.7128 24.394 91.234 26.2588ZM87.5693 23.6723C88.2873 22.6995 88.6463 21.317 88.6463 19.5244C88.6463 17.7321 88.2873 16.3523 87.5693 15.385C86.8514 14.4181 85.8227 13.9341 84.4834 13.9341C83.1439 13.9341 82.1126 14.4181 81.3893 15.385C80.666 16.3523 80.3044 17.7321 80.3044 19.5244C80.3044 21.317 80.666 22.6995 81.3893 23.6723C82.1126 24.6451 83.1439 25.1315 84.4834 25.1315C85.8227 25.1315 86.8514 24.6451 87.5693 23.6723Z" fill="black"/>
<path d="M108.949 11.5782C110.096 12.5468 110.67 14.1534 110.67 16.3968V28.4479H105.976V17.5625C105.976 16.6215 105.854 15.8992 105.609 15.3953C105.163 14.4759 104.311 14.0162 103.057 14.0162C101.514 14.0162 100.456 14.6894 99.8819 16.0356C99.5833 16.7474 99.4345 17.6559 99.4345 18.761V28.4479H94.8539V10.5521H99.2899V13.1953C99.8766 12.2759 100.432 11.6141 100.955 11.2087C101.894 10.4864 103.083 10.1252 104.524 10.1252C106.327 10.1252 107.802 10.6095 108.949 11.5782Z" fill="black"/>
<path d="M17.6798 28.4479H13.8079L8.88954 10.5521H13.8079L17.6798 28.4479Z" fill="black"/>
<path d="M110.67 34.2612H76.6216V30.6889H110.67V34.2612Z" fill="#C4007A"/>
</svg>
